<svg width="41" height="36" viewBox="0 0 41 36" fill="none" xmlns="http://www.w3.org/2000/svg">
<path opacity="0.7" fill-rule="evenodd" clip-rule="evenodd" d="M7.68746 13.8333C6.74788 13.8333 5.97913 13.0833 5.97913 12.1667V8.83333H2.56246C1.62288 8.83333 0.854126 8.08333 0.854126 7.16667C0.854126 6.25 1.62288 5.5 2.56246 5.5H5.97913V2.16667C5.97913 1.25 6.74788 0.5 7.68746 0.5C8.62704 0.5 9.39579 1.25 9.39579 2.16667V5.5H12.8125C13.752 5.5 14.5208 6.25 14.5208 7.16667C14.5208 8.08333 13.752 8.83333 12.8125 8.83333H9.39579V12.1667C9.39579 13.0833 8.62704 13.8333 7.68746 13.8333ZM18.6241 19.6666C19.5396 18.1196 21.2315 17.1666 23.0625 17.1666C24.8935 17.1666 26.5854 18.1196 27.5009 19.6666C28.4164 21.2136 28.4164 23.1196 27.5009 24.6666C26.5854 26.2136 24.8935 27.1666 23.0625 27.1666C21.2315 27.1666 19.5396 26.2136 18.6241 24.6666C17.7086 23.1196 17.7086 21.2136 18.6241 19.6666ZM36.7291 8.83333H31.3137L29.1954 6.58333C28.5633 5.9 27.6408 5.5 26.6841 5.5H15.7508C16.0412 6 16.2291 6.55 16.2291 7.16667C16.2291 9 14.6916 10.5 12.8125 10.5H11.1041V12.1667C11.1041 14 9.56663 15.5 7.68746 15.5C7.05538 15.5 6.49162 15.3167 5.97913 15.0333V32.1667C5.97913 34 7.51662 35.5 9.39579 35.5H36.7291C38.6083 35.5 40.1458 34 40.1458 32.1667V12.1667C40.1458 10.3333 38.6083 8.83333 36.7291 8.83333ZM14.5207 22.1667C14.5207 26.7667 18.3474 30.5 23.0624 30.5C27.7774 30.5 31.6041 26.7667 31.6041 22.1667C31.6041 17.5667 27.7774 13.8334 23.0624 13.8334C18.3474 13.8334 14.5207 17.5667 14.5207 22.1667Z" fill="white"/>
</svg>
