<svg width="8" height="8" viewBox="0 0 8 8" fill="none" xmlns="http://www.w3.org/2000/svg">
<path d="M7.15011 0.8551C7.05669 0.761474 6.92987 0.708857 6.79761 0.708857C6.66535 0.708857 6.53852 0.761474 6.44511 0.8551L4.00011 3.2951L1.55511 0.8501C1.46169 0.756474 1.33487 0.703857 1.20261 0.703857C1.07035 0.703857 0.943523 0.756474 0.850107 0.8501C0.655107 1.0451 0.655107 1.3601 0.850107 1.5551L3.29511 4.0001L0.850107 6.4451C0.655107 6.6401 0.655107 6.9551 0.850107 7.1501C1.04511 7.3451 1.36011 7.3451 1.55511 7.1501L4.00011 4.7051L6.44511 7.1501C6.64011 7.3451 6.95511 7.3451 7.15011 7.1501C7.34511 6.9551 7.34511 6.6401 7.15011 6.4451L4.70511 4.0001L7.15011 1.5551C7.34011 1.3651 7.34011 1.0451 7.15011 0.8551Z" fill="white"/>
</svg>
